%TF.GenerationSoftware,KiCad,Pcbnew,7.0.2*%
%TF.CreationDate,2023-12-10T20:37:23+01:00*%
%TF.ProjectId,Choinka_EE,43686f69-6e6b-4615-9f45-452e6b696361,rev?*%
%TF.SameCoordinates,Original*%
%TF.FileFunction,Legend,Bot*%
%TF.FilePolarity,Positive*%
%FSLAX46Y46*%
G04 Gerber Fmt 4.6, Leading zero omitted, Abs format (unit mm)*
G04 Created by KiCad (PCBNEW 7.0.2) date 2023-12-10 20:37:23*
%MOMM*%
%LPD*%
G01*
G04 APERTURE LIST*
%ADD10C,0.150000*%
G04 APERTURE END LIST*
D10*
X133984888Y-128333958D02*
X133937256Y-128191063D01*
X133937256Y-128191063D02*
X133937256Y-127952904D01*
X133937256Y-127952904D02*
X133984888Y-127857640D01*
X133984888Y-127857640D02*
X134032519Y-127810008D01*
X134032519Y-127810008D02*
X134127783Y-127762377D01*
X134127783Y-127762377D02*
X134223047Y-127762377D01*
X134223047Y-127762377D02*
X134318310Y-127810008D01*
X134318310Y-127810008D02*
X134365942Y-127857640D01*
X134365942Y-127857640D02*
X134413574Y-127952904D01*
X134413574Y-127952904D02*
X134461206Y-128143431D01*
X134461206Y-128143431D02*
X134508837Y-128238695D01*
X134508837Y-128238695D02*
X134556469Y-128286326D01*
X134556469Y-128286326D02*
X134651733Y-128333958D01*
X134651733Y-128333958D02*
X134746996Y-128333958D01*
X134746996Y-128333958D02*
X134842260Y-128286326D01*
X134842260Y-128286326D02*
X134889892Y-128238695D01*
X134889892Y-128238695D02*
X134937524Y-128143431D01*
X134937524Y-128143431D02*
X134937524Y-127905272D01*
X134937524Y-127905272D02*
X134889892Y-127762377D01*
X133984888Y-126952636D02*
X133937256Y-127047900D01*
X133937256Y-127047900D02*
X133937256Y-127238427D01*
X133937256Y-127238427D02*
X133984888Y-127333690D01*
X133984888Y-127333690D02*
X134080151Y-127381322D01*
X134080151Y-127381322D02*
X134461206Y-127381322D01*
X134461206Y-127381322D02*
X134556469Y-127333690D01*
X134556469Y-127333690D02*
X134604101Y-127238427D01*
X134604101Y-127238427D02*
X134604101Y-127047900D01*
X134604101Y-127047900D02*
X134556469Y-126952636D01*
X134556469Y-126952636D02*
X134461206Y-126905004D01*
X134461206Y-126905004D02*
X134365942Y-126905004D01*
X134365942Y-126905004D02*
X134270678Y-127381322D01*
X134604101Y-126476317D02*
X133937256Y-126476317D01*
X134508837Y-126476317D02*
X134556469Y-126428686D01*
X134556469Y-126428686D02*
X134604101Y-126333422D01*
X134604101Y-126333422D02*
X134604101Y-126190527D01*
X134604101Y-126190527D02*
X134556469Y-126095263D01*
X134556469Y-126095263D02*
X134461206Y-126047631D01*
X134461206Y-126047631D02*
X133937256Y-126047631D01*
X133984888Y-125618945D02*
X133937256Y-125523682D01*
X133937256Y-125523682D02*
X133937256Y-125333154D01*
X133937256Y-125333154D02*
X133984888Y-125237891D01*
X133984888Y-125237891D02*
X134080151Y-125190259D01*
X134080151Y-125190259D02*
X134127783Y-125190259D01*
X134127783Y-125190259D02*
X134223047Y-125237891D01*
X134223047Y-125237891D02*
X134270678Y-125333154D01*
X134270678Y-125333154D02*
X134270678Y-125476050D01*
X134270678Y-125476050D02*
X134318310Y-125571313D01*
X134318310Y-125571313D02*
X134413574Y-125618945D01*
X134413574Y-125618945D02*
X134461206Y-125618945D01*
X134461206Y-125618945D02*
X134556469Y-125571313D01*
X134556469Y-125571313D02*
X134604101Y-125476050D01*
X134604101Y-125476050D02*
X134604101Y-125333154D01*
X134604101Y-125333154D02*
X134556469Y-125237891D01*
X133937256Y-124618677D02*
X133984888Y-124713941D01*
X133984888Y-124713941D02*
X134032519Y-124761572D01*
X134032519Y-124761572D02*
X134127783Y-124809204D01*
X134127783Y-124809204D02*
X134413574Y-124809204D01*
X134413574Y-124809204D02*
X134508837Y-124761572D01*
X134508837Y-124761572D02*
X134556469Y-124713941D01*
X134556469Y-124713941D02*
X134604101Y-124618677D01*
X134604101Y-124618677D02*
X134604101Y-124475782D01*
X134604101Y-124475782D02*
X134556469Y-124380518D01*
X134556469Y-124380518D02*
X134508837Y-124332886D01*
X134508837Y-124332886D02*
X134413574Y-124285254D01*
X134413574Y-124285254D02*
X134127783Y-124285254D01*
X134127783Y-124285254D02*
X134032519Y-124332886D01*
X134032519Y-124332886D02*
X133984888Y-124380518D01*
X133984888Y-124380518D02*
X133937256Y-124475782D01*
X133937256Y-124475782D02*
X133937256Y-124618677D01*
X133937256Y-123856568D02*
X134604101Y-123856568D01*
X134413574Y-123856568D02*
X134508837Y-123808937D01*
X134508837Y-123808937D02*
X134556469Y-123761305D01*
X134556469Y-123761305D02*
X134604101Y-123666041D01*
X134604101Y-123666041D02*
X134604101Y-123570778D01*
X134037256Y-112143832D02*
X134037256Y-112620150D01*
X134037256Y-112620150D02*
X135037524Y-112620150D01*
X134561206Y-111810409D02*
X134561206Y-111476987D01*
X134037256Y-111334091D02*
X134037256Y-111810409D01*
X134037256Y-111810409D02*
X135037524Y-111810409D01*
X135037524Y-111810409D02*
X135037524Y-111334091D01*
X134037256Y-110905405D02*
X135037524Y-110905405D01*
X135037524Y-110905405D02*
X135037524Y-110667246D01*
X135037524Y-110667246D02*
X134989892Y-110524351D01*
X134989892Y-110524351D02*
X134894628Y-110429087D01*
X134894628Y-110429087D02*
X134799365Y-110381456D01*
X134799365Y-110381456D02*
X134608837Y-110333824D01*
X134608837Y-110333824D02*
X134465942Y-110333824D01*
X134465942Y-110333824D02*
X134275415Y-110381456D01*
X134275415Y-110381456D02*
X134180151Y-110429087D01*
X134180151Y-110429087D02*
X134084888Y-110524351D01*
X134084888Y-110524351D02*
X134037256Y-110667246D01*
X134037256Y-110667246D02*
X134037256Y-110905405D01*
X133941992Y-110143297D02*
X133941992Y-109381188D01*
X134037256Y-109143028D02*
X135037524Y-109143028D01*
X135037524Y-109143028D02*
X134323047Y-108809606D01*
X134323047Y-108809606D02*
X135037524Y-108476183D01*
X135037524Y-108476183D02*
X134037256Y-108476183D01*
X134037256Y-107856970D02*
X134084888Y-107952234D01*
X134084888Y-107952234D02*
X134132519Y-107999865D01*
X134132519Y-107999865D02*
X134227783Y-108047497D01*
X134227783Y-108047497D02*
X134513574Y-108047497D01*
X134513574Y-108047497D02*
X134608837Y-107999865D01*
X134608837Y-107999865D02*
X134656469Y-107952234D01*
X134656469Y-107952234D02*
X134704101Y-107856970D01*
X134704101Y-107856970D02*
X134704101Y-107714075D01*
X134704101Y-107714075D02*
X134656469Y-107618811D01*
X134656469Y-107618811D02*
X134608837Y-107571179D01*
X134608837Y-107571179D02*
X134513574Y-107523547D01*
X134513574Y-107523547D02*
X134227783Y-107523547D01*
X134227783Y-107523547D02*
X134132519Y-107571179D01*
X134132519Y-107571179D02*
X134084888Y-107618811D01*
X134084888Y-107618811D02*
X134037256Y-107714075D01*
X134037256Y-107714075D02*
X134037256Y-107856970D01*
X134037256Y-106666175D02*
X135037524Y-106666175D01*
X134084888Y-106666175D02*
X134037256Y-106761439D01*
X134037256Y-106761439D02*
X134037256Y-106951966D01*
X134037256Y-106951966D02*
X134084888Y-107047230D01*
X134084888Y-107047230D02*
X134132519Y-107094861D01*
X134132519Y-107094861D02*
X134227783Y-107142493D01*
X134227783Y-107142493D02*
X134513574Y-107142493D01*
X134513574Y-107142493D02*
X134608837Y-107094861D01*
X134608837Y-107094861D02*
X134656469Y-107047230D01*
X134656469Y-107047230D02*
X134704101Y-106951966D01*
X134704101Y-106951966D02*
X134704101Y-106761439D01*
X134704101Y-106761439D02*
X134656469Y-106666175D01*
X134704101Y-105761171D02*
X134037256Y-105761171D01*
X134704101Y-106189857D02*
X134180151Y-106189857D01*
X134180151Y-106189857D02*
X134084888Y-106142226D01*
X134084888Y-106142226D02*
X134037256Y-106046962D01*
X134037256Y-106046962D02*
X134037256Y-105904067D01*
X134037256Y-105904067D02*
X134084888Y-105808803D01*
X134084888Y-105808803D02*
X134132519Y-105761171D01*
X134037256Y-105141958D02*
X134084888Y-105237222D01*
X134084888Y-105237222D02*
X134180151Y-105284853D01*
X134180151Y-105284853D02*
X135037524Y-105284853D01*
X134084888Y-104379849D02*
X134037256Y-104475113D01*
X134037256Y-104475113D02*
X134037256Y-104665640D01*
X134037256Y-104665640D02*
X134084888Y-104760903D01*
X134084888Y-104760903D02*
X134180151Y-104808535D01*
X134180151Y-104808535D02*
X134561206Y-104808535D01*
X134561206Y-104808535D02*
X134656469Y-104760903D01*
X134656469Y-104760903D02*
X134704101Y-104665640D01*
X134704101Y-104665640D02*
X134704101Y-104475113D01*
X134704101Y-104475113D02*
X134656469Y-104379849D01*
X134656469Y-104379849D02*
X134561206Y-104332217D01*
X134561206Y-104332217D02*
X134465942Y-104332217D01*
X134465942Y-104332217D02*
X134370678Y-104808535D01*
X78537524Y-110543430D02*
X77727783Y-110543430D01*
X77727783Y-110543430D02*
X77632519Y-110495799D01*
X77632519Y-110495799D02*
X77584888Y-110448167D01*
X77584888Y-110448167D02*
X77537256Y-110352903D01*
X77537256Y-110352903D02*
X77537256Y-110162376D01*
X77537256Y-110162376D02*
X77584888Y-110067112D01*
X77584888Y-110067112D02*
X77632519Y-110019481D01*
X77632519Y-110019481D02*
X77727783Y-109971849D01*
X77727783Y-109971849D02*
X78537524Y-109971849D01*
X77584888Y-109543162D02*
X77537256Y-109400267D01*
X77537256Y-109400267D02*
X77537256Y-109162108D01*
X77537256Y-109162108D02*
X77584888Y-109066844D01*
X77584888Y-109066844D02*
X77632519Y-109019212D01*
X77632519Y-109019212D02*
X77727783Y-108971581D01*
X77727783Y-108971581D02*
X77823047Y-108971581D01*
X77823047Y-108971581D02*
X77918310Y-109019212D01*
X77918310Y-109019212D02*
X77965942Y-109066844D01*
X77965942Y-109066844D02*
X78013574Y-109162108D01*
X78013574Y-109162108D02*
X78061206Y-109352635D01*
X78061206Y-109352635D02*
X78108837Y-109447899D01*
X78108837Y-109447899D02*
X78156469Y-109495530D01*
X78156469Y-109495530D02*
X78251733Y-109543162D01*
X78251733Y-109543162D02*
X78346996Y-109543162D01*
X78346996Y-109543162D02*
X78442260Y-109495530D01*
X78442260Y-109495530D02*
X78489892Y-109447899D01*
X78489892Y-109447899D02*
X78537524Y-109352635D01*
X78537524Y-109352635D02*
X78537524Y-109114476D01*
X78537524Y-109114476D02*
X78489892Y-108971581D01*
X78061206Y-108209472D02*
X78013574Y-108066576D01*
X78013574Y-108066576D02*
X77965942Y-108018945D01*
X77965942Y-108018945D02*
X77870678Y-107971313D01*
X77870678Y-107971313D02*
X77727783Y-107971313D01*
X77727783Y-107971313D02*
X77632519Y-108018945D01*
X77632519Y-108018945D02*
X77584888Y-108066576D01*
X77584888Y-108066576D02*
X77537256Y-108161840D01*
X77537256Y-108161840D02*
X77537256Y-108542894D01*
X77537256Y-108542894D02*
X78537524Y-108542894D01*
X78537524Y-108542894D02*
X78537524Y-108209472D01*
X78537524Y-108209472D02*
X78489892Y-108114208D01*
X78489892Y-108114208D02*
X78442260Y-108066576D01*
X78442260Y-108066576D02*
X78346996Y-108018945D01*
X78346996Y-108018945D02*
X78251733Y-108018945D01*
X78251733Y-108018945D02*
X78156469Y-108066576D01*
X78156469Y-108066576D02*
X78108837Y-108114208D01*
X78108837Y-108114208D02*
X78061206Y-108209472D01*
X78061206Y-108209472D02*
X78061206Y-108542894D01*
X77441992Y-107780786D02*
X77441992Y-107018677D01*
X77632519Y-106208936D02*
X77584888Y-106256568D01*
X77584888Y-106256568D02*
X77537256Y-106399463D01*
X77537256Y-106399463D02*
X77537256Y-106494727D01*
X77537256Y-106494727D02*
X77584888Y-106637622D01*
X77584888Y-106637622D02*
X77680151Y-106732886D01*
X77680151Y-106732886D02*
X77775415Y-106780517D01*
X77775415Y-106780517D02*
X77965942Y-106828149D01*
X77965942Y-106828149D02*
X78108837Y-106828149D01*
X78108837Y-106828149D02*
X78299365Y-106780517D01*
X78299365Y-106780517D02*
X78394628Y-106732886D01*
X78394628Y-106732886D02*
X78489892Y-106637622D01*
X78489892Y-106637622D02*
X78537524Y-106494727D01*
X78537524Y-106494727D02*
X78537524Y-106399463D01*
X78537524Y-106399463D02*
X78489892Y-106256568D01*
X78489892Y-106256568D02*
X78442260Y-106208936D01*
X78061206Y-128271984D02*
X78013574Y-128129088D01*
X78013574Y-128129088D02*
X77965942Y-128081457D01*
X77965942Y-128081457D02*
X77870678Y-128033825D01*
X77870678Y-128033825D02*
X77727783Y-128033825D01*
X77727783Y-128033825D02*
X77632519Y-128081457D01*
X77632519Y-128081457D02*
X77584888Y-128129088D01*
X77584888Y-128129088D02*
X77537256Y-128224352D01*
X77537256Y-128224352D02*
X77537256Y-128605406D01*
X77537256Y-128605406D02*
X78537524Y-128605406D01*
X78537524Y-128605406D02*
X78537524Y-128271984D01*
X78537524Y-128271984D02*
X78489892Y-128176720D01*
X78489892Y-128176720D02*
X78442260Y-128129088D01*
X78442260Y-128129088D02*
X78346996Y-128081457D01*
X78346996Y-128081457D02*
X78251733Y-128081457D01*
X78251733Y-128081457D02*
X78156469Y-128129088D01*
X78156469Y-128129088D02*
X78108837Y-128176720D01*
X78108837Y-128176720D02*
X78061206Y-128271984D01*
X78061206Y-128271984D02*
X78061206Y-128605406D01*
X77537256Y-127176452D02*
X78061206Y-127176452D01*
X78061206Y-127176452D02*
X78156469Y-127224084D01*
X78156469Y-127224084D02*
X78204101Y-127319348D01*
X78204101Y-127319348D02*
X78204101Y-127509875D01*
X78204101Y-127509875D02*
X78156469Y-127605138D01*
X77584888Y-127176452D02*
X77537256Y-127271716D01*
X77537256Y-127271716D02*
X77537256Y-127509875D01*
X77537256Y-127509875D02*
X77584888Y-127605138D01*
X77584888Y-127605138D02*
X77680151Y-127652770D01*
X77680151Y-127652770D02*
X77775415Y-127652770D01*
X77775415Y-127652770D02*
X77870678Y-127605138D01*
X77870678Y-127605138D02*
X77918310Y-127509875D01*
X77918310Y-127509875D02*
X77918310Y-127271716D01*
X77918310Y-127271716D02*
X77965942Y-127176452D01*
X78204101Y-126843030D02*
X78204101Y-126461975D01*
X78537524Y-126700134D02*
X77680151Y-126700134D01*
X77680151Y-126700134D02*
X77584888Y-126652503D01*
X77584888Y-126652503D02*
X77537256Y-126557239D01*
X77537256Y-126557239D02*
X77537256Y-126461975D01*
X78204101Y-126271448D02*
X78204101Y-125890393D01*
X78537524Y-126128552D02*
X77680151Y-126128552D01*
X77680151Y-126128552D02*
X77584888Y-126080921D01*
X77584888Y-126080921D02*
X77537256Y-125985657D01*
X77537256Y-125985657D02*
X77537256Y-125890393D01*
X77584888Y-125175916D02*
X77537256Y-125271180D01*
X77537256Y-125271180D02*
X77537256Y-125461707D01*
X77537256Y-125461707D02*
X77584888Y-125556970D01*
X77584888Y-125556970D02*
X77680151Y-125604602D01*
X77680151Y-125604602D02*
X78061206Y-125604602D01*
X78061206Y-125604602D02*
X78156469Y-125556970D01*
X78156469Y-125556970D02*
X78204101Y-125461707D01*
X78204101Y-125461707D02*
X78204101Y-125271180D01*
X78204101Y-125271180D02*
X78156469Y-125175916D01*
X78156469Y-125175916D02*
X78061206Y-125128284D01*
X78061206Y-125128284D02*
X77965942Y-125128284D01*
X77965942Y-125128284D02*
X77870678Y-125604602D01*
X77537256Y-124699597D02*
X78204101Y-124699597D01*
X78013574Y-124699597D02*
X78108837Y-124651966D01*
X78108837Y-124651966D02*
X78156469Y-124604334D01*
X78156469Y-124604334D02*
X78204101Y-124509070D01*
X78204101Y-124509070D02*
X78204101Y-124413807D01*
X78204101Y-124175647D02*
X77537256Y-123937488D01*
X78204101Y-123699329D02*
X77537256Y-123937488D01*
X77537256Y-123937488D02*
X77299097Y-124032752D01*
X77299097Y-124032752D02*
X77251465Y-124080383D01*
X77251465Y-124080383D02*
X77203833Y-124175647D01*
%TO.C,G\u002A\u002A\u002A*%
G36*
X98818319Y-107393104D02*
G01*
X99328545Y-108546239D01*
X99912144Y-109664435D01*
X100548355Y-110705239D01*
X101226594Y-111651362D01*
X101936276Y-112485517D01*
X102355634Y-112934231D01*
X102395328Y-112220603D01*
X102453343Y-111642766D01*
X102636124Y-110824572D01*
X102936157Y-110059306D01*
X103356203Y-109338687D01*
X103480758Y-109171388D01*
X103652229Y-108964228D01*
X103841551Y-108751462D01*
X104028468Y-108554389D01*
X104192722Y-108394312D01*
X104314054Y-108292531D01*
X104372208Y-108270347D01*
X104377603Y-108284816D01*
X104400599Y-108399672D01*
X104432254Y-108600571D01*
X104467394Y-108855687D01*
X104635298Y-109693070D01*
X104932854Y-110567086D01*
X105353258Y-111444449D01*
X105893012Y-112317896D01*
X106548622Y-113180162D01*
X106630104Y-113276141D01*
X106853485Y-113525849D01*
X107088404Y-113773123D01*
X107315242Y-113998802D01*
X107514381Y-114183725D01*
X107666205Y-114308730D01*
X107751096Y-114354656D01*
X107766877Y-114325932D01*
X107766602Y-114201119D01*
X107740198Y-114010970D01*
X107724836Y-113910152D01*
X107702149Y-113550069D01*
X107709545Y-113124044D01*
X107738436Y-112749275D01*
X108426091Y-112749275D01*
X108428423Y-113003751D01*
X108502402Y-113234564D01*
X108563867Y-113326446D01*
X108771385Y-113494961D01*
X109024634Y-113562713D01*
X109291350Y-113525237D01*
X109539267Y-113378067D01*
X109675244Y-113236182D01*
X109738236Y-113091354D01*
X109753057Y-112881718D01*
X109738780Y-112674764D01*
X109676781Y-112529405D01*
X109539267Y-112385368D01*
X109297531Y-112236408D01*
X109025303Y-112197336D01*
X108760670Y-112279342D01*
X108527064Y-112480230D01*
X108493474Y-112530265D01*
X108426091Y-112749275D01*
X107738436Y-112749275D01*
X107744006Y-112677022D01*
X107802511Y-112253946D01*
X107882040Y-111899759D01*
X107893088Y-111863019D01*
X107997200Y-111564977D01*
X108133567Y-111227868D01*
X108275686Y-110917800D01*
X108329246Y-110813378D01*
X108483802Y-110541725D01*
X108646927Y-110288947D01*
X108804061Y-110074085D01*
X108940646Y-109916186D01*
X109042124Y-109834291D01*
X109093936Y-109847446D01*
X109097689Y-109859347D01*
X109133161Y-109983164D01*
X109189444Y-110188283D01*
X109256184Y-110437077D01*
X109511407Y-111181442D01*
X109905178Y-111958630D01*
X110416979Y-112704887D01*
X111040484Y-113411075D01*
X111769367Y-114068054D01*
X111922773Y-114190400D01*
X112120073Y-114342687D01*
X112263352Y-114446953D01*
X112329059Y-114485624D01*
X112343354Y-114460834D01*
X112354018Y-114339106D01*
X112348368Y-114149981D01*
X112345510Y-114098055D01*
X112370717Y-113635445D01*
X112477122Y-113110597D01*
X112658716Y-112554398D01*
X112758433Y-112323003D01*
X112885775Y-112067082D01*
X113022347Y-111820249D01*
X113152132Y-111609955D01*
X113259111Y-111463648D01*
X113327264Y-111408780D01*
X113350214Y-111430056D01*
X113411418Y-111542676D01*
X113485311Y-111719733D01*
X113722271Y-112285108D01*
X114165969Y-113123585D01*
X114693271Y-113910202D01*
X115286690Y-114619855D01*
X115928740Y-115227443D01*
X116089253Y-115355087D01*
X116345172Y-115544042D01*
X116624320Y-115737798D01*
X116905202Y-115922687D01*
X117166321Y-116085043D01*
X117386181Y-116211200D01*
X117543287Y-116287491D01*
X117616142Y-116300248D01*
X117617172Y-116280615D01*
X117580242Y-116166805D01*
X117499475Y-115978244D01*
X117386447Y-115743009D01*
X117383340Y-115736826D01*
X117261581Y-115485388D01*
X117199645Y-115330631D01*
X117192476Y-115255910D01*
X117235016Y-115244578D01*
X117254966Y-115248781D01*
X117393034Y-115275437D01*
X117624684Y-115318646D01*
X117923137Y-115373443D01*
X118261610Y-115434864D01*
X119176348Y-115599931D01*
X119914573Y-114863800D01*
X120081705Y-114698843D01*
X120308707Y-114480947D01*
X120489962Y-114314552D01*
X120610118Y-114213608D01*
X120653823Y-114192064D01*
X120654954Y-114207131D01*
X120669546Y-114329562D01*
X120698299Y-114547899D01*
X120737829Y-114836837D01*
X120784751Y-115171068D01*
X120801348Y-115288285D01*
X120845919Y-115607005D01*
X120881883Y-115869964D01*
X120905906Y-116052549D01*
X120914655Y-116130147D01*
X120927139Y-116143988D01*
X121030264Y-116210822D01*
X121220742Y-116319031D01*
X121478147Y-116457219D01*
X121782052Y-116613994D01*
X121922674Y-116685503D01*
X122215800Y-116836472D01*
X122457833Y-116963728D01*
X122626784Y-117055623D01*
X122700667Y-117100514D01*
X122692140Y-117118994D01*
X122594142Y-117187968D01*
X122406779Y-117294745D01*
X122148923Y-117428826D01*
X121839447Y-117579708D01*
X121509667Y-117737679D01*
X121251919Y-117867733D01*
X121079122Y-117966933D01*
X120973297Y-118046959D01*
X120916465Y-118119494D01*
X120890645Y-118196222D01*
X120873534Y-118292762D01*
X120838855Y-118507273D01*
X120795466Y-118788515D01*
X120748958Y-119100790D01*
X120712201Y-119345253D01*
X120668077Y-119621441D01*
X120631298Y-119832969D01*
X120607301Y-119947340D01*
X120594989Y-119971805D01*
X120550816Y-119978172D01*
X120468071Y-119927272D01*
X120334621Y-119808984D01*
X120329016Y-119803393D01*
X120138335Y-119613185D01*
X119867082Y-119329754D01*
X119163195Y-118585721D01*
X118156837Y-118753046D01*
X117952537Y-118786514D01*
X117631584Y-118836857D01*
X117372023Y-118874715D01*
X117196405Y-118896868D01*
X117127279Y-118900094D01*
X117127965Y-118886784D01*
X117169551Y-118785737D01*
X117257093Y-118609303D01*
X117377354Y-118384762D01*
X117383969Y-118372504D01*
X117839040Y-118372504D01*
X117889205Y-118402289D01*
X118017877Y-118394272D01*
X118043362Y-118389420D01*
X118216688Y-118359408D01*
X118464146Y-118319199D01*
X118741034Y-118276099D01*
X119284165Y-118193439D01*
X119789905Y-118696212D01*
X119962368Y-118865712D01*
X120142922Y-119038244D01*
X120271903Y-119155646D01*
X120329016Y-119198986D01*
X120353097Y-119166797D01*
X120377575Y-119051692D01*
X120380743Y-119023517D01*
X120401708Y-118860761D01*
X120434552Y-118621918D01*
X120473683Y-118347955D01*
X120554603Y-117791512D01*
X121238152Y-117454718D01*
X121921701Y-117117924D01*
X121262466Y-116787104D01*
X121006761Y-116659266D01*
X120810174Y-116551070D01*
X120678470Y-116447454D01*
X120594219Y-116321697D01*
X120539993Y-116147079D01*
X120498366Y-115896880D01*
X120451908Y-115544379D01*
X120370985Y-114933845D01*
X119830976Y-115471049D01*
X119290967Y-116008252D01*
X118580775Y-115875676D01*
X118333816Y-115830941D01*
X118089041Y-115789890D01*
X117919104Y-115765319D01*
X117850854Y-115761433D01*
X117868014Y-115817786D01*
X117933457Y-115968699D01*
X118036888Y-116190139D01*
X118167498Y-116458319D01*
X118503869Y-117136872D01*
X118172050Y-117726048D01*
X118072416Y-117905510D01*
X117952297Y-118130115D01*
X117869915Y-118294690D01*
X117839040Y-118372504D01*
X117383969Y-118372504D01*
X117431644Y-118284156D01*
X117531896Y-118082126D01*
X117588717Y-117942089D01*
X117591029Y-117889707D01*
X117583363Y-117890620D01*
X117478748Y-117935023D01*
X117295525Y-118034785D01*
X117059286Y-118174126D01*
X116795624Y-118337262D01*
X116530134Y-118508410D01*
X116288409Y-118671789D01*
X116096041Y-118811615D01*
X115612720Y-119227152D01*
X115006857Y-119879292D01*
X114448572Y-120635426D01*
X113947378Y-121482315D01*
X113512789Y-122406718D01*
X113444518Y-122568568D01*
X113376311Y-122723834D01*
X113341383Y-122794722D01*
X113335254Y-122799882D01*
X113271425Y-122760736D01*
X113162725Y-122607269D01*
X113012929Y-122345438D01*
X112825813Y-121981202D01*
X112584758Y-121413156D01*
X112402932Y-120743667D01*
X112340018Y-120099115D01*
X112335557Y-119935780D01*
X112320640Y-119782058D01*
X112299066Y-119722697D01*
X112252798Y-119741694D01*
X112118358Y-119834404D01*
X111925232Y-119987951D01*
X111694686Y-120184079D01*
X111447984Y-120404534D01*
X111206392Y-120631063D01*
X110991174Y-120845411D01*
X110452844Y-121458185D01*
X109974425Y-122124047D01*
X109592831Y-122798041D01*
X109317252Y-123463837D01*
X109156876Y-124105109D01*
X109131200Y-124241160D01*
X109084221Y-124348325D01*
X109010412Y-124339415D01*
X108954442Y-124285626D01*
X108889633Y-124223342D01*
X108644351Y-123916253D01*
X108313672Y-123364712D01*
X108044447Y-122741176D01*
X107845095Y-122075883D01*
X107724035Y-121399072D01*
X107705814Y-121049966D01*
X108423503Y-121049966D01*
X108426959Y-121317108D01*
X108517798Y-121548036D01*
X108706334Y-121729128D01*
X108954442Y-121826359D01*
X109217453Y-121825153D01*
X109461000Y-121726068D01*
X109650716Y-121529661D01*
X109668849Y-121499031D01*
X109751993Y-121317217D01*
X109785789Y-121168291D01*
X109785770Y-121164023D01*
X109724922Y-120911806D01*
X109568776Y-120685289D01*
X109350312Y-120532615D01*
X109320335Y-120520895D01*
X109077016Y-120487258D01*
X109037206Y-120481755D01*
X108767042Y-120561431D01*
X108542998Y-120750955D01*
X108505547Y-120806176D01*
X108423503Y-121049966D01*
X107705814Y-121049966D01*
X107689687Y-120740980D01*
X107750468Y-120131847D01*
X107760975Y-120071959D01*
X107771914Y-119912068D01*
X107741951Y-119853625D01*
X107672739Y-119889410D01*
X107529401Y-120005629D01*
X107335950Y-120183745D01*
X107111859Y-120404508D01*
X106876603Y-120648666D01*
X106649658Y-120896971D01*
X106450499Y-121130171D01*
X105867490Y-121906519D01*
X105320460Y-122796539D01*
X104900271Y-123688788D01*
X104608237Y-124580428D01*
X104445668Y-125468621D01*
X104419026Y-125665132D01*
X104385257Y-125832463D01*
X104354918Y-125907409D01*
X104314385Y-125897852D01*
X104200610Y-125811064D01*
X104039340Y-125656896D01*
X103850244Y-125456463D01*
X103652995Y-125230880D01*
X103467263Y-125001262D01*
X103312719Y-124788723D01*
X103040497Y-124341517D01*
X102714212Y-123617179D01*
X102504509Y-122848140D01*
X102406155Y-122018404D01*
X102367738Y-121270039D01*
X101919811Y-121739765D01*
X101748602Y-121923851D01*
X101077701Y-122734421D01*
X100571550Y-123457620D01*
X100434944Y-123652806D01*
X99831217Y-124661171D01*
X99277407Y-125741681D01*
X98784401Y-126876500D01*
X98478263Y-127647572D01*
X98329391Y-127302016D01*
X98120799Y-126770882D01*
X97882293Y-126048844D01*
X97660128Y-125256516D01*
X97462046Y-124426749D01*
X97295789Y-123592398D01*
X97169098Y-122786317D01*
X97089717Y-122041359D01*
X97072026Y-121752028D01*
X97060500Y-121121309D01*
X99962121Y-121121309D01*
X100005363Y-121390576D01*
X100157557Y-121626186D01*
X100312398Y-121743401D01*
X100571550Y-121827086D01*
X100836528Y-121807943D01*
X101073425Y-121690535D01*
X101248333Y-121479423D01*
X101326280Y-121232199D01*
X101300495Y-120960366D01*
X101160749Y-120723274D01*
X100915819Y-120545569D01*
X100865111Y-120523897D01*
X100587099Y-120481825D01*
X100568647Y-120487257D01*
X100321627Y-120559977D01*
X100098153Y-120750955D01*
X100030479Y-120857359D01*
X99962121Y-121121309D01*
X97060500Y-121121309D01*
X97059156Y-121047741D01*
X97084342Y-120339149D01*
X97145356Y-119670057D01*
X97239972Y-119084272D01*
X97276615Y-118884466D01*
X97296412Y-118717449D01*
X97290916Y-118640367D01*
X97254356Y-118633743D01*
X97102909Y-118625131D01*
X96851527Y-118618095D01*
X96518608Y-118612985D01*
X96122549Y-118610147D01*
X95681747Y-118609930D01*
X95382568Y-118610679D01*
X94964049Y-118611575D01*
X94599937Y-118612173D01*
X94309364Y-118612452D01*
X94111459Y-118612386D01*
X94025351Y-118611953D01*
X94017943Y-118609983D01*
X93992570Y-118563962D01*
X93973227Y-118447796D01*
X93971033Y-118416564D01*
X99970539Y-118416564D01*
X100031114Y-118717368D01*
X100128693Y-118872121D01*
X100326126Y-119010256D01*
X100568647Y-119066924D01*
X100822776Y-119041456D01*
X101055030Y-118933180D01*
X101231928Y-118741425D01*
X101307603Y-118580014D01*
X101323914Y-118407593D01*
X108404244Y-118407593D01*
X108449094Y-118656782D01*
X108584367Y-118867599D01*
X108797771Y-119013008D01*
X109077016Y-119065976D01*
X109092151Y-119065811D01*
X109333642Y-119036396D01*
X109510419Y-118937981D01*
X109674231Y-118742538D01*
X109720037Y-118663317D01*
X109776392Y-118412570D01*
X109725786Y-118159842D01*
X109579583Y-117938683D01*
X109349144Y-117782643D01*
X109137282Y-117735044D01*
X109065560Y-117718930D01*
X108804108Y-117778802D01*
X108576476Y-117965007D01*
X108462107Y-118147065D01*
X108404244Y-118407593D01*
X101323914Y-118407593D01*
X101330260Y-118340517D01*
X101238400Y-118077691D01*
X101090190Y-117890222D01*
X100861357Y-117763570D01*
X100622351Y-117734651D01*
X100601644Y-117732145D01*
X100345801Y-117799361D01*
X100128579Y-117968634D01*
X100027182Y-118132998D01*
X99970539Y-118416564D01*
X93971033Y-118416564D01*
X93959283Y-118249334D01*
X93950105Y-117956428D01*
X93945062Y-117556925D01*
X93943521Y-117038677D01*
X93943521Y-115653623D01*
X99961258Y-115653623D01*
X100003942Y-115903685D01*
X100136376Y-116116022D01*
X100346523Y-116263396D01*
X100622351Y-116318573D01*
X100784205Y-116306756D01*
X100947087Y-116242199D01*
X101118366Y-116095996D01*
X101153724Y-116059330D01*
X101305508Y-115832879D01*
X101314528Y-115757571D01*
X108418189Y-115757571D01*
X108502686Y-115982627D01*
X108661970Y-116164531D01*
X108879136Y-116282553D01*
X109137282Y-116315966D01*
X109419502Y-116244039D01*
X109487601Y-116200462D01*
X109630465Y-116038983D01*
X109741259Y-115831333D01*
X109785789Y-115634424D01*
X109784325Y-115603806D01*
X109715695Y-115391768D01*
X109570297Y-115185208D01*
X109383945Y-115037342D01*
X109344777Y-115018586D01*
X109071467Y-114963107D01*
X109024634Y-114974931D01*
X108807042Y-115029864D01*
X108578653Y-115212936D01*
X108541173Y-115260916D01*
X108425384Y-115510091D01*
X108418189Y-115757571D01*
X101314528Y-115757571D01*
X101333407Y-115599949D01*
X101241640Y-115334472D01*
X101100586Y-115146349D01*
X100872773Y-115006375D01*
X100614198Y-114968455D01*
X100599260Y-114972387D01*
X100357122Y-115036129D01*
X100133807Y-115212936D01*
X100020357Y-115393070D01*
X99961258Y-115653623D01*
X93943521Y-115653623D01*
X93943521Y-115467543D01*
X95612851Y-115467543D01*
X96007324Y-115466148D01*
X96419879Y-115461381D01*
X96770868Y-115453716D01*
X97042950Y-115443665D01*
X97218787Y-115431738D01*
X97281038Y-115418445D01*
X97278308Y-115393083D01*
X97258525Y-115260093D01*
X97223884Y-115045177D01*
X97179451Y-114780171D01*
X97144367Y-114526245D01*
X97105243Y-114048554D01*
X97084427Y-113497579D01*
X97081984Y-112931412D01*
X99969364Y-112931412D01*
X100030934Y-113174956D01*
X100170000Y-113373052D01*
X100366222Y-113509056D01*
X100599260Y-113566323D01*
X100848773Y-113528208D01*
X101094421Y-113378067D01*
X101230398Y-113236182D01*
X101293390Y-113091354D01*
X101308212Y-112881718D01*
X101293935Y-112674764D01*
X101231936Y-112529405D01*
X101094421Y-112385368D01*
X100984268Y-112303548D01*
X100725985Y-112207921D01*
X100464015Y-112217044D01*
X100230977Y-112326322D01*
X100059488Y-112531160D01*
X100005630Y-112659066D01*
X99969364Y-112931412D01*
X97081984Y-112931412D01*
X97081881Y-112907535D01*
X97097565Y-112312634D01*
X97131441Y-111747091D01*
X97183469Y-111245120D01*
X97313055Y-110435970D01*
X97502879Y-109531943D01*
X97734168Y-108636294D01*
X97996331Y-107789754D01*
X98278776Y-107033052D01*
X98477754Y-106552428D01*
X98818319Y-107393104D01*
G37*
%TD*%
M02*
