%TF.GenerationSoftware,KiCad,Pcbnew,7.0.2*%
%TF.CreationDate,2023-12-10T20:37:23+01:00*%
%TF.ProjectId,Choinka_EE,43686f69-6e6b-4615-9f45-452e6b696361,rev?*%
%TF.SameCoordinates,Original*%
%TF.FileFunction,Soldermask,Top*%
%TF.FilePolarity,Negative*%
%FSLAX46Y46*%
G04 Gerber Fmt 4.6, Leading zero omitted, Abs format (unit mm)*
G04 Created by KiCad (PCBNEW 7.0.2) date 2023-12-10 20:37:23*
%MOMM*%
%LPD*%
G01*
G04 APERTURE LIST*
G04 Aperture macros list*
%AMRoundRect*
0 Rectangle with rounded corners*
0 $1 Rounding radius*
0 $2 $3 $4 $5 $6 $7 $8 $9 X,Y pos of 4 corners*
0 Add a 4 corners polygon primitive as box body*
4,1,4,$2,$3,$4,$5,$6,$7,$8,$9,$2,$3,0*
0 Add four circle primitives for the rounded corners*
1,1,$1+$1,$2,$3*
1,1,$1+$1,$4,$5*
1,1,$1+$1,$6,$7*
1,1,$1+$1,$8,$9*
0 Add four rect primitives between the rounded corners*
20,1,$1+$1,$2,$3,$4,$5,0*
20,1,$1+$1,$4,$5,$6,$7,0*
20,1,$1+$1,$6,$7,$8,$9,0*
20,1,$1+$1,$8,$9,$2,$3,0*%
G04 Aperture macros list end*
%ADD10C,3.200000*%
%ADD11RoundRect,0.250000X1.000000X0.900000X-1.000000X0.900000X-1.000000X-0.900000X1.000000X-0.900000X0*%
%ADD12RoundRect,0.250000X-0.475000X0.337500X-0.475000X-0.337500X0.475000X-0.337500X0.475000X0.337500X0*%
%ADD13RoundRect,0.237500X0.237500X-0.300000X0.237500X0.300000X-0.237500X0.300000X-0.237500X-0.300000X0*%
%ADD14RoundRect,0.250000X-0.350000X-0.450000X0.350000X-0.450000X0.350000X0.450000X-0.350000X0.450000X0*%
%ADD15RoundRect,0.102000X-1.750000X0.500000X-1.750000X-0.500000X1.750000X-0.500000X1.750000X0.500000X0*%
%ADD16RoundRect,0.102000X-1.700000X0.750000X-1.700000X-0.750000X1.700000X-0.750000X1.700000X0.750000X0*%
%ADD17RoundRect,0.150000X0.512500X0.150000X-0.512500X0.150000X-0.512500X-0.150000X0.512500X-0.150000X0*%
%ADD18RoundRect,0.160800X-0.691200X-0.186200X0.691200X-0.186200X0.691200X0.186200X-0.691200X0.186200X0*%
%ADD19RoundRect,0.160800X0.691200X0.186200X-0.691200X0.186200X-0.691200X-0.186200X0.691200X-0.186200X0*%
%ADD20RoundRect,0.237500X-0.237500X0.300000X-0.237500X-0.300000X0.237500X-0.300000X0.237500X0.300000X0*%
%ADD21RoundRect,0.237500X-0.237500X0.250000X-0.237500X-0.250000X0.237500X-0.250000X0.237500X0.250000X0*%
%ADD22RoundRect,0.250000X-0.450000X0.350000X-0.450000X-0.350000X0.450000X-0.350000X0.450000X0.350000X0*%
%ADD23R,0.533400X1.663700*%
%ADD24RoundRect,0.250001X0.499999X0.924999X-0.499999X0.924999X-0.499999X-0.924999X0.499999X-0.924999X0*%
%ADD25RoundRect,0.237500X0.237500X-0.250000X0.237500X0.250000X-0.237500X0.250000X-0.237500X-0.250000X0*%
%ADD26R,1.200000X3.700000*%
%ADD27RoundRect,0.237500X-0.250000X-0.237500X0.250000X-0.237500X0.250000X0.237500X-0.250000X0.237500X0*%
%ADD28RoundRect,0.102000X1.750000X-0.500000X1.750000X0.500000X-1.750000X0.500000X-1.750000X-0.500000X0*%
%ADD29RoundRect,0.102000X1.700000X-0.750000X1.700000X0.750000X-1.700000X0.750000X-1.700000X-0.750000X0*%
%ADD30RoundRect,0.237500X0.287500X0.237500X-0.287500X0.237500X-0.287500X-0.237500X0.287500X-0.237500X0*%
G04 APERTURE END LIST*
D10*
%TO.C,H3*%
X129500000Y-117000000D03*
%TD*%
%TO.C,H2*%
X83500000Y-117000000D03*
%TD*%
D11*
%TO.C,D4*%
X99200000Y-121000000D03*
X94900000Y-121000000D03*
%TD*%
%TO.C,D1*%
X101550000Y-107500000D03*
X97250000Y-107500000D03*
%TD*%
D12*
%TO.C,C2*%
X92000000Y-125425000D03*
X92000000Y-127500000D03*
%TD*%
D13*
%TO.C,D3*%
X121000000Y-129450000D03*
X121000000Y-127725000D03*
%TD*%
D14*
%TO.C,R5*%
X118400000Y-115200000D03*
X120400000Y-115200000D03*
%TD*%
D15*
%TO.C,P3*%
X125500000Y-109500000D03*
X125500000Y-107500000D03*
D16*
X131250000Y-111850000D03*
X131250000Y-105150000D03*
%TD*%
D17*
%TO.C,U1*%
X98275000Y-126400000D03*
X98275000Y-125450000D03*
X98275000Y-124500000D03*
X96000000Y-124500000D03*
X96000000Y-126400000D03*
%TD*%
D18*
%TO.C,U2*%
X100000000Y-114350000D03*
X100000000Y-115000000D03*
X100000000Y-115650000D03*
X100000000Y-116300000D03*
D19*
X104210000Y-116300000D03*
X104210000Y-115650000D03*
X104210000Y-115000000D03*
X104210000Y-114350000D03*
%TD*%
D20*
%TO.C,C4*%
X109000000Y-123000000D03*
X109000000Y-124725000D03*
%TD*%
D21*
%TO.C,R7*%
X118000000Y-127675000D03*
X118000000Y-129500000D03*
%TD*%
D22*
%TO.C,R8*%
X121000000Y-122562500D03*
X121000000Y-124562500D03*
%TD*%
D17*
%TO.C,U4*%
X114500000Y-124950000D03*
X114500000Y-124000000D03*
X114500000Y-123050000D03*
X112225000Y-123050000D03*
X112225000Y-124000000D03*
X112225000Y-124950000D03*
%TD*%
D23*
%TO.C,U3*%
X115960000Y-111151500D03*
X117230000Y-111151500D03*
X118500000Y-111151500D03*
X119770000Y-111151500D03*
X119770000Y-105500000D03*
X118500000Y-105500000D03*
X117230000Y-105500000D03*
X115960000Y-105500000D03*
%TD*%
D24*
%TO.C,C6*%
X95750000Y-115000000D03*
X92500000Y-115000000D03*
%TD*%
D25*
%TO.C,R3*%
X104500000Y-119825000D03*
X104500000Y-118000000D03*
%TD*%
D12*
%TO.C,C1*%
X103000000Y-124000000D03*
X103000000Y-126075000D03*
%TD*%
D26*
%TO.C,L1*%
X109000000Y-106500000D03*
X111800000Y-106500000D03*
%TD*%
D27*
%TO.C,R1*%
X97675000Y-129500000D03*
X99500000Y-129500000D03*
%TD*%
D28*
%TO.C,P1*%
X87250000Y-107500000D03*
X87250000Y-109500000D03*
D29*
X81500000Y-105150000D03*
X81500000Y-111850000D03*
%TD*%
D20*
%TO.C,C7*%
X118000000Y-122500000D03*
X118000000Y-124225000D03*
%TD*%
D30*
%TO.C,D2*%
X95500000Y-129500000D03*
X93750000Y-129500000D03*
%TD*%
D12*
%TO.C,C3*%
X108000000Y-113500000D03*
X108000000Y-115575000D03*
%TD*%
D21*
%TO.C,R6*%
X114500000Y-127675000D03*
X114500000Y-129500000D03*
%TD*%
D28*
%TO.C,P2*%
X87250000Y-124850000D03*
X87250000Y-126850000D03*
D29*
X81500000Y-122500000D03*
X81500000Y-129200000D03*
%TD*%
D27*
%TO.C,R2*%
X101500000Y-129500000D03*
X103325000Y-129500000D03*
%TD*%
D15*
%TO.C,P4*%
X125500000Y-126850000D03*
X125500000Y-124850000D03*
D16*
X131250000Y-129200000D03*
X131250000Y-122500000D03*
%TD*%
D12*
%TO.C,C5*%
X112000000Y-117645000D03*
X112000000Y-119720000D03*
%TD*%
D21*
%TO.C,R4*%
X108000000Y-118000000D03*
X108000000Y-119825000D03*
%TD*%
M02*
